<?xml version="1.0" encoding="utf-8"?>
<svg version="1.1" id="Layer_1" xmlns="http://www.w3.org/2000/svg" xmlns:xlink="http://www.w3.org/1999/xlink" x="0px" y="0px"
	 viewBox="0 0 128 128" style="enable-background:new 0 0 128 128;" xml:space="preserve">
<style>
    @media (prefers-color-scheme: dark) {
      #favicon {
        fill: white;
      }
    }
  </style>
<path id="favicon" d="M14.5,119.2c1.3-0.8,2.6-1.7,3.9-2.4c1.5-0.8,2.1-1.9,2.1-3.6c0-33.6,0-67.1,0-100.7c0-2.5-0.3-2.2,2.2-2.2
	c7.6,0,15.2,0,22.8,0c1.2,0,1.5,0.4,1.4,1.5c0,12,0,24,0,36.1c0,0.5,0,1,0,1.5c0.1,0,0.2,0.1,0.3,0.1c0.4-0.4,0.8-0.8,1.1-1.2
	c5.4-6.1,12.2-9.5,20.3-10.4c6.5-0.7,12.9-0.2,19,2.5c8.5,3.8,13.7,10.4,16.4,19.2c1.6,5,2.1,10.3,2.1,15.5
	c0.1,12.6,0.1,25.3,0,37.9c0,1.8,0.5,2.9,2.1,3.8c1.3,0.7,2.5,1.7,3.7,2.7c-2,0.5-3.8,0.3-5.5-0.6c-3.1-1.6-6.1-3.2-9.3-4.6
	c-6.1-2.6-12.6-4.2-19.2-4.9c-5.3-0.6-10.6-1.2-16-1.1c-10.4,0.2-20.6,1.6-30.4,5.3c-3.5,1.4-6.9,3.1-10.3,4.7
	c-1.6,0.7-3.1,1.6-4.9,1.5c-0.6,0-1.1-0.1-1.7-0.2C14.6,119.4,14.6,119.3,14.5,119.2z M79.9,106.8c0-0.3,0.1-0.4,0.1-0.6
	C80,95.6,80,85.1,79.7,74.6c-0.1-3.8-1.4-7.4-4.1-10.2c-2.8-3-6.5-4.3-10.4-4.7c-5.7-0.5-10.7,0.9-14.5,5.5c-3,3.8-3.8,8.2-3.8,12.9
	c0,9,0,18.1,0,27.1c0,0.5,0.1,1,0.1,1.6C58.1,105,69,105.1,79.9,106.8z"/>
</svg>
